<?xml version='1.0' encoding='utf-8'?>
<svg xmlns="http://www.w3.org/2000/svg" enable-background="new 0 0 1628.7628 1628.7628" version="1.1" viewBox="0 0 1628.7628 1628.7628">
	<path d="m1224.9 644.36c21.556 33.161 50.338 65.193 81.855 90.981-15.421 16.84-30.842 29.056-46.261 34.096-37.67-34.053-66.262-68.658-87.421-103.61-9.7529-39.676-14.005-84.363-11.447-135.08 14.467-7.3391 34.009-9.6051 56.821-8.6022-4.0513 40.521-1.7525 83.523 6.4531 122.21zm0 340.04c-8.2056 38.691-10.504 81.693-6.4531 122.21-22.812 1.0028-42.354-1.2632-56.821-8.6023-2.5576-50.716 1.6943-95.403 11.447-135.08 21.159-34.952 49.751-69.556 87.421-103.61 15.419 5.04 30.84 17.256 46.261 34.096-31.517 25.788-60.299 57.821-81.855 90.982zm-240.45 240.45c-33.161 21.556-65.193 50.338-90.982 81.855-16.839-15.421-29.056-30.842-34.096-46.261 34.053-37.67 68.658-66.262 103.61-87.421 39.676-9.7529 84.363-14.005 135.08-11.447 7.3391 14.467 9.6051 34.009 8.6023 56.821-40.521-4.0513-83.523-1.7525-122.21 6.4531zm-340.04 0c-38.691-8.2056-81.693-10.504-122.21-6.4531-1.0029-22.812 1.2632-42.354 8.6022-56.821 50.716-2.5576 95.403 1.6943 135.08 11.447 34.952 21.159 69.556 49.751 103.61 87.421-5.04 15.419-17.256 30.84-34.096 46.261-25.788-31.517-57.82-60.299-90.981-81.855zm-240.45-240.45c-21.556-33.161-50.338-65.193-81.855-90.982 15.421-16.839 30.842-29.056 46.261-34.096 37.67 34.053 66.262 68.658 87.421 103.61 9.7529 39.676 14.005 84.363 11.447 135.08-14.467 7.3391-34.01 9.6051-56.821 8.6023 4.0511-40.521 1.7524-83.523-6.4533-122.21zm0-340.04c8.2057-38.691 10.504-81.693 6.4532-122.21 22.812-1.0029 42.354 1.2632 56.821 8.6022 2.5576 50.716-1.6944 95.403-11.447 135.08-21.159 34.952-49.75 69.556-87.421 103.61-15.419-5.04-30.84-17.256-46.261-34.096 31.517-25.788 60.299-57.82 81.855-90.981zm240.45-240.45c33.161-21.556 65.193-50.338 90.981-81.855 16.84 15.421 29.056 30.842 34.096 46.261-34.053 37.67-68.658 66.262-103.61 87.421-39.676 9.7529-84.363 14.005-135.08 11.447-7.3391-14.467-9.6051-34.01-8.6022-56.821 40.521 4.0511 83.523 1.7524 122.21-6.4533zm340.04 0c38.691 8.2057 81.693 10.504 122.21 6.4532 1.0028 22.812-1.2632 42.354-8.6023 56.821-50.716 2.5576-95.403-1.6944-135.08-11.447-34.952-21.159-69.556-49.75-103.61-87.421 5.04-15.419 17.256-30.84 34.096-46.261 25.788 31.517 57.821 60.299 90.982 81.855zm259.66-19.215c-6.9835-3.1514-14.551-7.122-22.015-11.786-12.231 7.6434-24.741 13.424-34.503 16.79 4.0225 13.747 0.8621 35.132 0.9694 50.544 15.413 0.1073 36.798-3.0531 50.545 0.9694 3.3652-9.7612 9.1462-22.272 16.79-34.503-4.6643-7.4638-8.6349-15.031-11.786-22.015zm177.98 429.68c-2.7096-7.1664-5.2531-15.325-7.2327-23.901-14.054-3.244-26.987-8.0023-36.269-12.525-6.8763 12.565-24.232 25.452-35.055 36.426 10.822 10.974 28.179 23.861 35.055 36.426 9.2819-4.5226 22.216-9.2809 36.269-12.525 1.9797-8.5756 4.5231-16.734 7.2327-23.901zm-177.98 429.68c3.1514-6.9835 7.1219-14.551 11.786-22.015-7.6434-12.231-13.424-24.741-16.79-34.503-13.747 4.0225-35.132 0.8621-50.545 0.9694-0.1073 15.413 3.0531 36.798-0.9694 50.545 9.7612 3.3652 22.272 9.1462 34.503 16.79 7.4639-4.6643 15.032-8.6349 22.015-11.786zm-429.68 177.98c7.1664-2.7096 15.325-5.2531 23.901-7.2327 3.244-14.054 8.0024-26.987 12.525-36.269-12.565-6.8763-25.452-24.232-36.426-35.055-10.974 10.822-23.861 28.179-36.426 35.055 4.5226 9.2819 9.2809 22.216 12.525 36.269 8.5757 1.9797 16.734 4.5231 23.901 7.2327zm-429.68-177.98c6.9835 3.1514 14.551 7.1219 22.015 11.786 12.231-7.6434 24.741-13.424 34.503-16.79-4.0225-13.747-0.8621-35.132-0.9694-50.545-15.412-0.1073-36.797 3.0531-50.544-0.9694-3.3653 9.7612-9.1463 22.272-16.79 34.503 4.6642 7.4639 8.6348 15.032 11.786 22.015zm-177.98-429.68c2.7097 7.1664 5.2531 15.325 7.2327 23.901 14.053 3.244 26.987 8.0024 36.269 12.525 6.8763-12.565 24.232-25.452 35.055-36.426-10.822-10.974-28.179-23.861-35.055-36.426-9.2818 4.5226-22.216 9.2809-36.269 12.525-1.9796 8.5757-4.5231 16.734-7.2327 23.901zm177.98-429.68c-3.1514 6.9835-7.122 14.551-11.786 22.015 7.6434 12.231 13.424 24.741 16.79 34.503 13.747-4.0225 35.132-0.8621 50.544-0.9694 0.1073-15.412-3.0531-36.797 0.9694-50.544-9.7612-3.3653-22.272-9.1463-34.503-16.79-7.4638 4.6642-15.031 8.6348-22.015 11.786zm429.68-177.98c-7.1664 2.7097-15.325 5.2531-23.901 7.2327-3.244 14.053-8.0023 26.987-12.525 36.269 12.565 6.8763 25.452 24.232 36.426 35.055 10.974-10.822 23.861-28.179 36.426-35.055-4.5226-9.2818-9.2809-22.216-12.525-36.269-8.5756-1.9796-16.734-4.5231-23.901-7.2327zm545.9 640.44c-10.939-13.029-23.421-23.828-36.781-32.77 13.36-8.9423 25.842-19.741 36.781-32.77m-183.06 441.95c1.4778-16.948 0.2876-33.41-2.8363-49.18 15.77 3.1239 32.232 4.3141 49.18 2.8363m-441.95 183.06c13.029-10.939 23.828-23.421 32.77-36.781 8.9423 13.36 19.741 25.842 32.77 36.781m-441.95-183.06c16.948 1.4778 33.41 0.2876 49.18-2.8363-3.124 15.77-4.3141 32.232-2.8363 49.18m-183.06-441.95c10.939 13.029 23.421 23.828 36.781 32.77-13.36 8.9423-25.842 19.741-36.781 32.77m183.06-441.95c-1.4778 16.948-0.2877 33.41 2.8363 49.18-15.77-3.124-32.232-4.3141-49.18-2.8363m441.95-183.06c-13.029 10.939-23.828 23.421-32.77 36.781-8.9423-13.36-19.741-25.842-32.77-36.781m441.95 183.06c-16.948-1.4778-33.41-0.2877-49.18 2.8363 3.1239-15.77 4.3141-32.232 2.8363-49.18m183.06 376.41c30.63-36.48 32.403-74.437 37.746-113.23-18.669-10.276-37.343-13.201-56.01-14.611 18.349 75.964-85.744 153.75-153.41 150.98-1.1469 3.2114-1.8783 6.4229-2.3395 9.6346 0.4612 3.2117 1.1926 6.4232 2.3395 9.6346 67.669-2.7715 171.76 75.015 153.41 150.98 18.667-1.4103 37.342-4.3351 56.01-14.611-5.343-38.796-7.1156-76.753-37.746-113.23m-136.72 330.07c47.454-4.1364 75.547-29.722 106.76-53.377-5.9344-20.467-17.071-35.74-29.274-49.937-40.74 66.69-169.35 48.088-215.24-1.7207-3.0819 1.4598-5.8699 3.2136-8.467 5.1584-1.9448 2.5972-3.6986 5.3851-5.1584 8.467 49.809 45.89 68.41 174.5 1.7207 215.24 14.197 12.202 29.47 23.339 49.937 29.274 23.655-31.211 49.241-59.304 53.377-106.76m-330.07 136.72c36.48 30.63 74.437 32.403 113.23 37.746 10.276-18.669 13.201-37.343 14.611-56.01-75.964 18.349-153.75-85.744-150.98-153.41-3.2114-1.1469-6.423-1.8783-9.6346-2.3395-3.2117 0.4612-6.4232 1.1926-9.6346 2.3395 2.7715 67.669-75.015 171.76-150.98 153.41 1.4103 18.667 4.3351 37.342 14.611 56.01 38.796-5.343 76.752-7.1156 113.23-37.746m-330.07-136.72c4.1363 47.454 29.722 75.547 53.377 106.76 20.467-5.9344 35.74-17.071 49.937-29.274-66.69-40.74-48.088-169.35 1.7207-215.24-1.4598-3.0819-3.2136-5.8699-5.1584-8.467-2.5971-1.9448-5.3851-3.6986-8.467-5.1584-45.89 49.809-174.5 68.41-215.24 1.7207-12.202 14.197-23.339 29.47-29.274 49.937 31.211 23.655 59.304 49.241 106.76 53.377m-136.72-330.07c-30.63 36.48-32.403 74.437-37.746 113.23 18.669 10.276 37.343 13.201 56.01 14.611-18.349-75.964 85.744-153.75 153.41-150.98 1.1469-3.2114 1.8783-6.423 2.3394-9.6346-0.4612-3.2117-1.1925-6.4232-2.3394-9.6346-67.669 2.7715-171.76-75.015-153.41-150.98-18.667 1.4103-37.342 4.3351-56.01 14.611 5.343 38.796 7.1156 76.752 37.746 113.23m136.72-330.07c-47.454 4.1363-75.547 29.722-106.76 53.377 5.9344 20.467 17.071 35.74 29.274 49.937 40.74-66.69 169.35-48.088 215.24 1.7207 3.0818-1.4598 5.8699-3.2136 8.467-5.1584 1.9449-2.5971 3.6987-5.3851 5.1584-8.467-49.809-45.89-68.411-174.5-1.7207-215.24-14.197-12.202-29.47-23.339-49.937-29.274-23.655 31.211-49.241 59.304-53.377 106.76m330.07-136.72c-36.48-30.63-74.437-32.403-113.23-37.746-10.276 18.669-13.201 37.343-14.611 56.01 75.964-18.349 153.75 85.744 150.98 153.41 3.2114 1.1469 6.4229 1.8783 9.6346 2.3394 3.2117-0.4612 6.4232-1.1925 9.6346-2.3394-2.7715-67.669 75.015-171.76 150.98-153.41-1.4103-18.667-4.3351-37.342-14.611-56.01-38.796 5.343-76.753 7.1156-113.23 37.746m330.07 136.72c-4.1364-47.454-29.722-75.547-53.377-106.76-20.467 5.9344-35.74 17.071-49.937 29.274 66.69 40.74 48.088 169.35-1.7207 215.24 1.4598 3.0818 3.2136 5.8699 5.1584 8.467 2.5972 1.9449 5.3851 3.6987 8.467 5.1584 45.89-49.809 174.5-68.411 215.24-1.7207 12.202-14.197 23.339-29.47 29.274-49.937-31.211-23.655-59.304-49.241-106.76-53.377m-49.069 362.84c3.1881-31.344 7.9352-67.769 20.195-91.211-13.404-16.637-25.357-33.281-35.302-49.92-25.099 47.045-35.58 94.088-38.278 141.13 2.6982 47.043 13.179 94.087 38.278 141.13 9.9454-16.64 21.898-33.284 35.302-49.92-12.26-23.442-17.007-59.867-20.195-91.211zm-105.47 254.64c24.418-19.909 53.531-42.309 78.776-50.216 2.2861-21.242 5.6034-41.463 10.337-60.261-51.013 15.518-91.69 41.372-126.86 72.728-31.357 35.173-57.21 75.849-72.728 126.86 18.798-4.7334 39.019-8.0507 60.261-10.337 7.9074-25.245 30.307-54.358 50.216-78.776zm-254.64 105.47c31.344 3.1881 67.769 7.9352 91.211 20.195 16.637-13.404 33.281-25.357 49.92-35.302-47.045-25.099-94.088-35.58-141.13-38.278-47.043 2.6982-94.087 13.179-141.13 38.278 16.64 9.9454 33.284 21.898 49.92 35.302 23.442-12.26 59.867-17.007 91.211-20.195zm-254.64-105.47c19.909 24.418 42.309 53.531 50.216 78.776 21.242 2.2861 41.463 5.6034 60.261 10.337-15.518-51.013-41.372-91.69-72.728-126.86-35.173-31.357-75.849-57.21-126.86-72.728 4.7333 18.798 8.0506 39.019 10.337 60.261 25.245 7.9074 54.358 30.307 78.776 50.216zm-105.47-254.64c-3.1881 31.344-7.9352 67.769-20.195 91.211 13.404 16.637 25.356 33.281 35.302 49.92 25.099-47.045 35.58-94.088 38.278-141.13-2.6983-47.043-13.18-94.087-38.278-141.13-9.9455 16.64-21.898 33.284-35.302 49.92 12.26 23.442 17.007 59.867 20.195 91.211zm105.47-254.64c-24.418 19.909-53.531 42.309-78.776 50.216-2.286 21.242-5.6033 41.463-10.337 60.261 51.013-15.518 91.689-41.372 126.86-72.728 31.357-35.173 57.21-75.849 72.728-126.86-18.798 4.7333-39.019 8.0506-60.261 10.337-7.9074 25.245-30.307 54.358-50.216 78.776zm254.64-105.47c-31.344-3.1881-67.769-7.9352-91.211-20.195-16.637 13.404-33.281 25.356-49.92 35.302 47.045 25.099 94.088 35.58 141.13 38.278 47.043-2.6983 94.087-13.18 141.13-38.278-16.64-9.9455-33.284-21.898-49.92-35.302-23.442 12.26-59.867 17.007-91.211 20.195zm254.64 105.47c-19.909-24.418-42.309-53.531-50.216-78.776-21.242-2.286-41.463-5.6033-60.261-10.337 15.518 51.013 41.372 91.689 72.728 126.86 35.173 31.357 75.849 57.21 126.86 72.728-4.7334-18.798-8.0507-39.019-10.337-60.261-25.245-7.9074-54.358-30.307-78.776-50.216zm-27.148 160.41c13.411 24.324 21.078 50.301 20.102 72.417 17.053 6.0854 34.095 0.4805 51.142 4.8694-0.8881-28.873-6.3865-64.168-20.302-98.388-14.357-34.036-35.427-62.882-55.215-83.926-8.951 15.158-24.965 23.245-32.72 39.606 16.328 14.949 29.276 38.739 36.992 65.421zm0 188.46c-7.7166 26.682-20.664 50.472-36.992 65.421 7.7551 16.361 23.769 24.448 32.72 39.606 19.788-21.044 40.858-49.89 55.215-83.926 13.915-34.219 19.414-69.515 20.302-98.388-17.048 4.3889-34.09-1.216-51.142 4.8694 0.9751 22.116-6.6919 48.094-20.103 72.417zm-133.26 133.26c-24.324 13.411-50.301 21.078-72.417 20.102-6.0854 17.053-0.4806 34.095-4.8694 51.142 28.873-0.8881 64.168-6.3865 98.388-20.302 34.036-14.357 62.882-35.427 83.926-55.215-15.158-8.951-23.245-24.965-39.606-32.72-14.949 16.328-38.739 29.276-65.421 36.992zm-188.46 0c-26.682-7.7166-50.472-20.664-65.421-36.992-16.361 7.7551-24.448 23.769-39.606 32.72 21.044 19.788 49.89 40.858 83.926 55.215 34.219 13.915 69.515 19.414 98.388 20.302-4.3889-17.048 1.216-34.09-4.8694-51.142-22.116 0.9751-48.094-6.6919-72.417-20.103zm-133.26-133.26c-13.411-24.324-21.078-50.301-20.102-72.417-17.053-6.0854-34.095-0.4806-51.142-4.8694 0.8881 28.873 6.3865 64.168 20.302 98.388 14.357 34.036 35.427 62.882 55.215 83.926 8.951-15.158 24.965-23.245 32.72-39.606-16.328-14.949-29.275-38.739-36.992-65.421zm0-188.46c7.7166-26.682 20.664-50.472 36.992-65.421-7.7551-16.361-23.769-24.448-32.72-39.606-19.788 21.044-40.858 49.89-55.215 83.926-13.915 34.219-19.414 69.515-20.302 98.388 17.048-4.3889 34.09 1.216 51.142-4.8694-0.9751-22.116 6.6918-48.094 20.102-72.417zm133.26-133.26c24.324-13.411 50.301-21.078 72.417-20.102 6.0854-17.053 0.4805-34.095 4.8694-51.142-28.873 0.8881-64.168 6.3865-98.388 20.302-34.036 14.357-62.882 35.427-83.926 55.215 15.158 8.951 23.245 24.965 39.606 32.72 14.949-16.328 38.739-29.275 65.421-36.992zm188.46 0c26.682 7.7166 50.472 20.664 65.421 36.992 16.361-7.7551 24.448-23.769 39.606-32.72-21.044-19.788-49.89-40.858-83.926-55.215-34.219-13.915-69.515-19.414-98.388-20.302 4.3889 17.048-1.216 34.09 4.8694 51.142 22.116-0.9751 48.094 6.6918 72.417 20.102zm-24.947 158.21c11.052-39.378 16.545-83.836 15.102-134.44-36.803 34.764-64.356 70.084-84.385 105.74-20.029-35.66-47.582-70.98-84.385-105.74-1.4421 50.605 4.0501 95.063 15.103 134.44-39.378-11.052-83.836-16.545-134.44-15.103 34.764 36.803 70.084 64.356 105.74 84.385-35.66 20.029-70.98 47.582-105.74 84.385 50.605 1.4422 95.063-4.0501 134.44-15.102-11.052 39.378-16.545 83.836-15.103 134.44 36.803-34.764 64.356-70.084 84.385-105.74 20.029 35.66 47.582 70.98 84.385 105.74 1.4422-50.605-4.0501-95.063-15.102-134.44 39.378 11.052 83.836 16.545 134.44 15.102-34.764-36.803-70.084-64.356-105.74-84.385 35.66-20.029 70.98-47.582 105.74-84.385-50.605-1.4422-95.063 4.0501-134.44 15.103zm96.737 97.184c42.611-17.059 85.228-23.159 127.84-23.135-0.0127-1.5887-0.0386-3.1774-0.0756-4.7661 0.037-1.5887 0.0629-3.1774 0.0756-4.7661-42.615 0.0233-85.232-6.0765-127.84-23.135m-68.355 165.02c42.193 18.068 76.641 43.89 106.76 74.04 1.1143-1.1324 2.2194-2.2741 3.3167-3.4236 1.1495-1.0972 2.2911-2.2023 3.4236-3.3167-30.15-30.117-55.971-64.565-74.04-106.76m-165.02 68.355c17.059 42.611 23.159 85.228 23.135 127.84 1.5887-0.0127 3.1774-0.0386 4.7661-0.0756 1.5887 0.037 3.1774 0.0629 4.7661 0.0756-0.0233-42.615 6.0764-85.232 23.135-127.84m-165.02-68.355c-18.068 42.193-43.89 76.641-74.04 106.76 1.1324 1.1143 2.2741 2.2194 3.4236 3.3167 1.0972 1.1495 2.2023 2.2911 3.3167 3.4236 30.117-30.15 64.565-55.971 106.76-74.04m-68.355-165.02c-42.611 17.059-85.228 23.159-127.84 23.135 0.0128 1.5887 0.0386 3.1774 0.0756 4.7661-0.037 1.5887-0.0629 3.1774-0.0756 4.7661 42.615-0.0233 85.232 6.0764 127.84 23.135m68.355-165.02c-42.193-18.068-76.641-43.89-106.76-74.04-1.1144 1.1324-2.2194 2.2741-3.3167 3.4236-1.1495 1.0972-2.2912 2.2023-3.4236 3.3167 30.15 30.117 55.971 64.565 74.04 106.76m165.02-68.355c-17.059-42.611-23.159-85.228-23.135-127.84-1.5887 0.0128-3.1774 0.0386-4.7661 0.0756-1.5887-0.037-3.1774-0.0629-4.7661-0.0756 0.0233 42.615-6.0765 85.232-23.135 127.84m165.02 68.355c18.068-42.193 43.89-76.641 74.04-106.76-1.1324-1.1144-2.2741-2.2194-3.4236-3.3167-1.0972-1.1495-2.2023-2.2912-3.3167-3.4236-30.117 30.15-64.565 55.971-106.76 74.04m68.355 109.22c-12.7 10.564-25.399 19.681-38.099 27.901 12.7 8.2208 25.399 17.338 38.099 27.901m-28.897 69.762c-16.45-1.5109-31.876-4.0437-46.67-7.211 3.1673 14.793 5.7001 30.22 7.211 46.67m-69.762 28.897c-10.564-12.7-19.681-25.399-27.901-38.099-8.2208 12.7-17.338 25.399-27.901 38.099m-69.762-28.897c1.5109-16.45 4.0436-31.876 7.211-46.67-14.793 3.1673-30.22 5.7001-46.67 7.211m-28.896-69.762c12.7-10.564 25.399-19.681 38.099-27.901-12.7-8.2208-25.399-17.338-38.099-27.901m28.897-69.762c16.45 1.5109 31.876 4.0436 46.67 7.211-3.1674-14.793-5.7001-30.22-7.211-46.67m69.762-28.896c10.564 12.7 19.681 25.399 27.901 38.099 8.2208-12.7 17.338-25.399 27.901-38.099m69.762 28.897c-1.5109 16.45-4.0437 31.876-7.211 46.67 14.793-3.1674 30.22-5.7001 46.67-7.211m38.735-326.89c6.761 1.5706 13.888 2.7762 21.674 3.3222 2.6589-6.5987 5.6693-20.633 10.338-29.272 27.413-50.705 117.84-109.24 199.8-98.378 39.698-5.2593 81.383 5.7604 116.93 24.285 18.524 35.548 29.544 77.233 24.285 116.93 10.858 81.959-47.672 172.39-98.378 199.8-8.6392 4.6689-22.674 7.6793-29.272 10.338 0.5459 7.7866 1.7515 14.913 3.3221 21.674 3.6702 5.8914 7.8568 11.783 12.977 17.675 6.5461-2.7858 18.599-10.581 28.009-13.388 55.238-16.47 160.57 6.0844 210.84 71.716 31.79 24.352 53.473 61.619 65.511 99.855-12.038 38.235-33.721 75.503-65.511 99.855-50.276 65.632-155.61 88.186-210.84 71.716-9.4102-2.8073-21.463-10.602-28.009-13.388-5.1199 5.892-9.3065 11.784-12.977 17.675-1.5707 6.761-2.7762 13.888-3.3221 21.674 6.5986 2.6589 20.633 5.6693 29.272 10.338 50.705 27.413 109.24 117.84 98.378 199.8 5.2592 39.698-5.7605 81.383-24.285 116.93-35.548 18.524-77.233 29.544-116.93 24.285-81.959 10.858-172.39-47.672-199.8-98.378-4.6689-8.6392-7.6793-22.674-10.338-29.272-7.7866 0.5459-14.913 1.7515-21.674 3.3221-5.8914 3.6702-11.783 7.8568-17.675 12.977 2.7858 6.5461 10.581 18.599 13.388 28.009 16.47 55.238-6.0844 160.57-71.716 210.84-24.352 31.79-61.619 53.473-99.855 65.511-38.235-12.038-75.503-33.721-99.855-65.511-65.632-50.276-88.186-155.61-71.716-210.84 2.8073-9.4102 10.602-21.463 13.388-28.009-5.892-5.1199-11.784-9.3065-17.675-12.977-6.761-1.5707-13.887-2.7762-21.674-3.3221-2.6589 6.5986-5.6693 20.633-10.338 29.272-27.413 50.705-117.84 109.24-199.8 98.378-39.698 5.2592-81.383-5.7605-116.93-24.285-18.524-35.548-29.544-77.233-24.285-116.93-10.858-81.959 47.672-172.39 98.378-199.8 8.6391-4.6689 22.674-7.6793 29.272-10.338-0.546-7.7866-1.7516-14.913-3.3222-21.674-3.6702-5.8914-7.8568-11.783-12.977-17.675-6.5462 2.7858-18.599 10.581-28.009 13.388-55.238 16.47-160.57-6.0844-210.84-71.716-31.79-24.352-53.473-61.619-65.511-99.855 12.038-38.235 33.721-75.503 65.511-99.855 50.276-65.632 155.61-88.186 210.84-71.716 9.4102 2.8073 21.463 10.602 28.009 13.388 5.1198-5.892 9.3065-11.784 12.977-17.675 1.5706-6.761 2.7762-13.887 3.3222-21.674-6.5987-2.6589-20.633-5.6693-29.272-10.338-50.705-27.413-109.24-117.84-98.378-199.8-5.2593-39.698 5.7604-81.383 24.285-116.93 35.548-18.524 77.233-29.544 116.93-24.285 81.959-10.858 172.39 47.672 199.8 98.378 4.6689 8.6391 7.6793 22.674 10.338 29.272 7.7866-0.546 14.913-1.7516 21.674-3.3222 5.8914-3.6702 11.783-7.8568 17.675-12.977-2.7858-6.5462-10.581-18.599-13.388-28.009-16.47-55.238 6.0844-160.57 71.716-210.84 24.352-31.79 61.619-53.473 99.855-65.511 38.235 12.038 75.503 33.721 99.855 65.511 65.632 50.276 88.186 155.61 71.716 210.84-2.8073 9.4102-10.602 21.463-13.388 28.009 5.8919 5.1199 11.784 9.3065 17.675 12.977zm389.83-141.13c-43.275-25.649-96.491-41.597-158.02-47.515-71.913 6.9174-132.48 27.537-179.08 61.335-9.0546-56.853-37.299-114.26-83.258-170-47.69-39.32-96.596-65.673-145.33-78.136-48.737 12.463-97.642 38.816-145.33 78.136-45.959 55.742-74.203 113.15-83.258 170-46.604-33.798-107.17-54.418-179.08-61.335-61.525 5.9182-114.74 21.866-158.02 47.515-25.649 43.275-41.597 96.491-47.515 158.02 6.9174 71.913 27.537 132.48 61.335 179.08-56.853 9.0546-114.26 37.299-170 83.258-39.32 47.69-65.673 96.596-78.136 145.33 12.463 48.737 38.816 97.643 78.136 145.33 55.742 45.959 113.15 74.203 170 83.258-33.798 46.604-54.418 107.17-61.335 179.08 5.9182 61.525 21.866 114.74 47.515 158.02 43.275 25.649 96.491 41.597 158.02 47.515 71.913-6.9174 132.48-27.537 179.08-61.335 9.0546 56.853 37.299 114.26 83.258 170 47.69 39.32 96.596 65.673 145.33 78.136 48.737-12.463 97.643-38.816 145.33-78.136 45.959-55.742 74.203-113.15 83.258-170 46.604 33.798 107.17 54.418 179.08 61.335 61.525-5.9181 114.74-21.866 158.02-47.515 25.649-43.275 41.597-96.491 47.515-158.02-6.9174-71.913-27.537-132.48-61.335-179.08 56.853-9.0546 114.26-37.299 170-83.258 39.32-47.69 65.673-96.596 78.136-145.33-12.463-48.737-38.816-97.642-78.136-145.33-55.742-45.959-113.15-74.203-170-83.258 33.798-46.604 54.418-107.17 61.335-179.08-5.9181-61.525-21.866-114.74-47.515-158.02z" clip-rule="evenodd" fill="#231F20" fill-rule="evenodd"/>
</svg>